<svg xmlns="http://www.w3.org/2000/svg" viewBox="0 0 1024 1024" role="img" aria-label="Ranker app icon">
<defs><linearGradient id="bg" x1="0" y1="0" x2="0" y2="1"><stop offset="0" stop-color="#2E7294"/><stop offset="1" stop-color="#245A75"/></linearGradient>
<clipPath id="r"><rect width="1024" height="1024" rx="229"/></clipPath></defs>
<g clip-path="url(#r)"><rect width="1024" height="1024" fill="url(#bg)"/>
<path d="M385.2 778.4 A270 270 0 0 1 474.4 272.6" fill="none" stroke="#F1EFE9" stroke-width="16" stroke-linecap="round"/><ellipse cx="335.7" cy="782.7" rx="54" ry="22" transform="rotate(188.0 335.7 782.7)" fill="#F1EFE9"/><ellipse cx="370.9" cy="734.2" rx="54" ry="22" transform="rotate(244.0 370.9 734.2)" fill="#F1EFE9"/><ellipse cx="269.3" cy="716.3" rx="54" ry="22" transform="rotate(206.0 269.3 716.3)" fill="#F1EFE9"/><ellipse cx="317.8" cy="681.1" rx="54" ry="22" transform="rotate(262.0 317.8 681.1)" fill="#F1EFE9"/><ellipse cx="226.7" cy="632.7" rx="54" ry="22" transform="rotate(224.0 226.7 632.7)" fill="#F1EFE9"/><ellipse cx="283.7" cy="614.2" rx="54" ry="22" transform="rotate(280.0 283.7 614.2)" fill="#F1EFE9"/><ellipse cx="212.0" cy="540.0" rx="54" ry="22" transform="rotate(242.0 212.0 540.0)" fill="#F1EFE9"/><ellipse cx="272.0" cy="540.0" rx="54" ry="22" transform="rotate(298.0 272.0 540.0)" fill="#F1EFE9"/><ellipse cx="226.7" cy="447.3" rx="54" ry="22" transform="rotate(260.0 226.7 447.3)" fill="#F1EFE9"/><ellipse cx="283.7" cy="465.8" rx="54" ry="22" transform="rotate(316.0 283.7 465.8)" fill="#F1EFE9"/><ellipse cx="269.3" cy="363.7" rx="54" ry="22" transform="rotate(278.0 269.3 363.7)" fill="#F1EFE9"/><ellipse cx="317.8" cy="398.9" rx="54" ry="22" transform="rotate(334.0 317.8 398.9)" fill="#F1EFE9"/><ellipse cx="335.7" cy="297.3" rx="54" ry="22" transform="rotate(296.0 335.7 297.3)" fill="#F1EFE9"/><ellipse cx="370.9" cy="345.8" rx="54" ry="22" transform="rotate(352.0 370.9 345.8)" fill="#F1EFE9"/><ellipse cx="419.3" cy="254.7" rx="54" ry="22" transform="rotate(314.0 419.3 254.7)" fill="#F1EFE9"/><ellipse cx="437.8" cy="311.7" rx="54" ry="22" transform="rotate(370.0 437.8 311.7)" fill="#F1EFE9"/><path d="M638.8 778.4 A270 270 0 0 0 549.6 272.6" fill="none" stroke="#F1EFE9" stroke-width="16" stroke-linecap="round"/><ellipse cx="688.3" cy="782.7" rx="54" ry="22" transform="rotate(-8.0 688.3 782.7)" fill="#F1EFE9"/><ellipse cx="653.1" cy="734.2" rx="54" ry="22" transform="rotate(-64.0 653.1 734.2)" fill="#F1EFE9"/><ellipse cx="754.7" cy="716.3" rx="54" ry="22" transform="rotate(-26.0 754.7 716.3)" fill="#F1EFE9"/><ellipse cx="706.2" cy="681.1" rx="54" ry="22" transform="rotate(-82.0 706.2 681.1)" fill="#F1EFE9"/><ellipse cx="797.3" cy="632.7" rx="54" ry="22" transform="rotate(-44.0 797.3 632.7)" fill="#F1EFE9"/><ellipse cx="740.3" cy="614.2" rx="54" ry="22" transform="rotate(-100.0 740.3 614.2)" fill="#F1EFE9"/><ellipse cx="812.0" cy="540.0" rx="54" ry="22" transform="rotate(-62.0 812.0 540.0)" fill="#F1EFE9"/><ellipse cx="752.0" cy="540.0" rx="54" ry="22" transform="rotate(-118.0 752.0 540.0)" fill="#F1EFE9"/><ellipse cx="797.3" cy="447.3" rx="54" ry="22" transform="rotate(-80.0 797.3 447.3)" fill="#F1EFE9"/><ellipse cx="740.3" cy="465.8" rx="54" ry="22" transform="rotate(-136.0 740.3 465.8)" fill="#F1EFE9"/><ellipse cx="754.7" cy="363.7" rx="54" ry="22" transform="rotate(-98.0 754.7 363.7)" fill="#F1EFE9"/><ellipse cx="706.2" cy="398.9" rx="54" ry="22" transform="rotate(-154.0 706.2 398.9)" fill="#F1EFE9"/><ellipse cx="688.3" cy="297.3" rx="54" ry="22" transform="rotate(-116.0 688.3 297.3)" fill="#F1EFE9"/><ellipse cx="653.1" cy="345.8" rx="54" ry="22" transform="rotate(-172.0 653.1 345.8)" fill="#F1EFE9"/><ellipse cx="604.7" cy="254.7" rx="54" ry="22" transform="rotate(-134.0 604.7 254.7)" fill="#F1EFE9"/><ellipse cx="586.2" cy="311.7" rx="54" ry="22" transform="rotate(-190.0 586.2 311.7)" fill="#F1EFE9"/>
<circle cx="512" cy="540" r="92" fill="#BB7F68"/>
</g></svg>
